<svg width="64" height="64" viewBox="0 0 64 64" fill="none" xmlns="http://www.w3.org/2000/svg">
<circle cx="32" cy="32" r="32" fill="#F7F9FA"/>
<mask id="mask0_124_810" style="mask-type:alpha" maskUnits="userSpaceOnUse" x="0" y="0" width="64" height="64">
<circle cx="32" cy="32" r="32" fill="#F7F9FA"/>
</mask>
<g mask="url(#mask0_124_810)">
<path d="M27.3333 38.7333C27.6922 38.7333 27.9933 38.6117 28.2365 38.3685C28.4788 38.1262 28.6 37.8256 28.6 37.4667C28.6 37.1078 28.4788 36.8067 28.2365 36.5635C27.9933 36.3212 27.6922 36.2 27.3333 36.2C26.9744 36.2 26.6734 36.3212 26.4302 36.5635C26.1878 36.8067 26.0667 37.1078 26.0667 37.4667C26.0667 37.8256 26.1878 38.1262 26.4302 38.3685C26.6734 38.6117 26.9744 38.7333 27.3333 38.7333ZM27.3333 33.6667C27.6922 33.6667 27.9933 33.5451 28.2365 33.3019C28.4788 33.0595 28.6 32.7589 28.6 32.4C28.6 32.0411 28.4788 31.7401 28.2365 31.4969C27.9933 31.2545 27.6922 31.1333 27.3333 31.1333C26.9744 31.1333 26.6734 31.2545 26.4302 31.4969C26.1878 31.7401 26.0667 32.0411 26.0667 32.4C26.0667 32.7589 26.1878 33.0595 26.4302 33.3019C26.6734 33.5451 26.9744 33.6667 27.3333 33.6667ZM27.3333 28.6C27.6922 28.6 27.9933 28.4784 28.2365 28.2352C28.4788 27.9928 28.6 27.6922 28.6 27.3333C28.6 26.9744 28.4788 26.6734 28.2365 26.4302C27.9933 26.1878 27.6922 26.0667 27.3333 26.0667C26.9744 26.0667 26.6734 26.1878 26.4302 26.4302C26.1878 26.6734 26.0667 26.9744 26.0667 27.3333C26.0667 27.6922 26.1878 27.9928 26.4302 28.2352C26.6734 28.4784 26.9744 28.6 27.3333 28.6ZM31.1333 38.7333H38.7333V36.2H31.1333V38.7333ZM31.1333 33.6667H38.7333V31.1333H31.1333V33.6667ZM31.1333 28.6H38.7333V26.0667H31.1333V28.6ZM23.5333 43.8C22.8367 43.8 22.2401 43.5522 21.7435 43.0565C21.2478 42.5599 21 41.9633 21 41.2667V23.5333C21 22.8367 21.2478 22.2401 21.7435 21.7435C22.2401 21.2478 22.8367 21 23.5333 21H41.2667C41.9633 21 42.5599 21.2478 43.0565 21.7435C43.5522 22.2401 43.8 22.8367 43.8 23.5333V41.2667C43.8 41.9633 43.5522 42.5599 43.0565 43.0565C42.5599 43.5522 41.9633 43.8 41.2667 43.8H23.5333ZM23.5333 41.2667H41.2667V23.5333H23.5333V41.2667ZM23.5333 23.5333V41.2667V23.5333Z" fill="#124E66"/>
</g>
</svg>
