<svg width="64" height="64" viewBox="0 0 64 64" fill="none" xmlns="http://www.w3.org/2000/svg">
<circle cx="32" cy="32" r="32" fill="#F7F9FA"/>
<path d="M34.999 39.128C35.852 39.3757 36.7358 39.5009 37.624 39.5C39.0525 39.5021 40.4623 39.1764 41.745 38.548C41.783 37.6517 41.5277 36.7675 41.0178 36.0293C40.508 35.2912 39.7714 34.7394 38.9198 34.4575C38.0681 34.1757 37.1477 34.1791 36.2982 34.4674C35.4487 34.7557 34.7163 35.313 34.212 36.055M34.999 39.128V39.125C34.999 38.012 34.713 36.965 34.212 36.055M34.999 39.128V39.234C33.0745 40.3931 30.8697 41.0038 28.623 41C26.292 41 24.111 40.355 22.249 39.234L22.248 39.125C22.2473 37.7095 22.7177 36.3339 23.585 35.2153C24.4524 34.0966 25.6674 33.2984 27.0385 32.9466C28.4097 32.5948 29.8589 32.7093 31.1577 33.2721C32.4566 33.8349 33.5311 34.814 34.212 36.055M31.999 26.375C31.999 27.2701 31.6435 28.1285 31.0105 28.7615C30.3776 29.3944 29.5192 29.75 28.624 29.75C27.7289 29.75 26.8705 29.3944 26.2376 28.7615C25.6046 28.1285 25.249 27.2701 25.249 26.375C25.249 25.4799 25.6046 24.6214 26.2376 23.9885C26.8705 23.3556 27.7289 23 28.624 23C29.5192 23 30.3776 23.3556 31.0105 23.9885C31.6435 24.6214 31.999 25.4799 31.999 26.375ZM40.249 28.625C40.249 29.3212 39.9725 29.9889 39.4802 30.4812C38.9879 30.9734 38.3202 31.25 37.624 31.25C36.9279 31.25 36.2602 30.9734 35.7679 30.4812C35.2756 29.9889 34.999 29.3212 34.999 28.625C34.999 27.9288 35.2756 27.2611 35.7679 26.7688C36.2602 26.2766 36.9279 26 37.624 26C38.3202 26 38.9879 26.2766 39.4802 26.7688C39.9725 27.2611 40.249 27.9288 40.249 28.625Z" stroke="#124E66" stroke-width="2" stroke-linecap="round" stroke-linejoin="round"/>
</svg>
